<!DOCTYPE svg PUBLIC "-//W3C//DTD SVG 1.1//EN" "http://www.w3.org/Graphics/SVG/1.1/DTD/svg11.dtd">
<!-- Uploaded to: SVG Repo, www.svgrepo.com, Transformed by: SVG Repo Mixer Tools -->
<svg width="64px" height="64px" viewBox="0 0 24.00 24.00" xmlns="http://www.w3.org/2000/svg" fill="#ffffff" transform="matrix(1, 0, 0, 1, 0, 0)rotate(0)" stroke="#ffffff">
<g id="SVGRepo_bgCarrier" stroke-width="0"/>
<g id="SVGRepo_tracerCarrier" stroke-linecap="round" stroke-linejoin="round" stroke="#CCCCCC" stroke-width="0.096"/>
<g id="SVGRepo_iconCarrier"> <g> <path fill="none" d="M0 0h24v24H0z"/> <path d="M7.105 15.21A3.001 3.001 0 1 1 5 15.17V8.83a3.001 3.001 0 1 1 2 0V12c.836-.628 1.874-1 3-1h4a3.001 3.001 0 0 0 2.895-2.21 3.001 3.001 0 1 1 2.032.064A5.001 5.001 0 0 1 14 13h-4a3.001 3.001 0 0 0-2.895 2.21z"/> </g> </g>
</svg>