<svg width="396" height="202" viewBox="0 0 396 202" fill="none" xmlns="http://www.w3.org/2000/svg">
<g clip-path="url(#clip0_100_4085)">
<path d="M13.618 113.4H22.3472C28.5815 113.4 33.3888 111.624 36.7638 108.066C40.1388 104.514 41.8263 99.6289 41.8263 93.4206C41.8263 87.2018 40.1388 82.3268 36.7638 78.7956C33.3888 75.2695 28.5815 73.5039 22.3472 73.5039H13.618V113.4ZM22.3472 66.3789C31.0138 66.3789 37.9357 68.8164 43.118 73.6914C48.2951 78.5664 50.8888 85.1445 50.8888 93.4206C50.8888 101.686 48.2951 108.207 43.118 112.983C37.9357 117.749 31.0138 120.129 22.3472 120.129H4.78467V66.3789H22.3472Z" fill="#FF4F04"/>
<path d="M86.9213 66.2955V73.1914H66.0463V89.5039H84.588V96.3164H66.0463V113.254H86.9213V120.129H57.213V66.2955H86.9213Z" fill="#FF4F04"/>
<path d="M111.273 120.129L91.0232 66.3789H100.44L116.294 111.004L132.315 66.3789H141.669L121.482 120.129H111.273Z" fill="#FF4F04"/>
<path d="M176.312 66.2955V73.1914H155.437V89.5039H173.979V96.3164H155.437V113.254H176.312V120.129H146.604V66.2955H176.312Z" fill="#FF4F04"/>
<path d="M184.727 66.3789H193.56V113.4H211.727V120.129H184.727V66.3789Z" fill="#FF4F04"/>
<path d="M241.184 112.712C246.601 112.712 251.023 110.921 254.455 107.337C257.882 103.754 259.601 99.0404 259.601 93.1914C259.601 87.332 257.882 82.6237 254.455 79.0664C251.023 75.5143 246.601 73.7331 241.184 73.7331C235.767 73.7331 231.34 75.5143 227.913 79.0664C224.497 82.6237 222.788 87.332 222.788 93.1914C222.788 99.0404 224.497 103.754 227.913 107.337C231.34 110.921 235.767 112.712 241.184 112.712ZM241.226 120.671C233.517 120.671 227.002 118.082 221.684 112.9C216.377 107.723 213.726 101.15 213.726 93.1914C213.726 85.2227 216.377 78.6445 221.684 73.4622C227.002 68.2852 233.517 65.6914 241.226 65.6914C248.934 65.6914 255.424 68.2852 260.705 73.4622C265.997 78.6445 268.642 85.2227 268.642 93.1914C268.642 101.15 265.997 107.723 260.705 112.9C255.424 118.082 248.934 120.671 241.226 120.671Z" fill="#FF4F04"/>
<path d="M293.454 66.3789C299.537 66.3789 304.225 67.8893 307.516 70.8997C310.818 73.9154 312.475 77.681 312.475 82.1914C312.475 86.707 310.912 90.5247 307.787 93.6497C304.672 96.7643 299.896 98.3164 293.454 98.3164H283.725V120.129H274.891V66.3789H293.454ZM283.725 91.4414H293.454C296.813 91.4414 299.313 90.6445 300.954 89.0456C302.605 87.4518 303.433 85.2227 303.433 82.3581C303.433 79.4987 302.605 77.2695 300.954 75.6706C299.313 74.0768 296.813 73.2747 293.454 73.2747H283.725V91.4414Z" fill="#FF4F04"/>
<path d="M348.212 66.2955V73.1914H327.337V89.5039H345.879V96.3164H327.337V113.254H348.212V120.129H318.504V66.2955H348.212Z" fill="#FF4F04"/>
<path d="M365.46 98.3164V120.129H356.627V66.3789H375.189C381.273 66.3789 385.96 67.8893 389.252 70.8997C392.554 73.9154 394.21 77.7487 394.21 82.3997C394.21 85.9987 393.111 89.2435 390.918 92.1289C388.736 95.0195 385.377 96.8997 380.835 97.7747L395.064 120.129H384.314L370.856 98.3164H365.46ZM365.46 73.2747V91.4414H375.189C378.549 91.4414 381.049 90.6445 382.689 89.0456C384.34 87.4518 385.168 85.2227 385.168 82.3581C385.168 79.4987 384.34 77.2695 382.689 75.6706C381.049 74.0768 378.549 73.2747 375.189 73.2747H365.46Z" fill="#FF4F04"/>
<path d="M25.0138 46.1092H29.7429V57.3175H23.0138C18.1648 57.3175 14.4096 56.2498 11.7429 54.1092C9.08667 51.9738 7.76375 48.2967 7.76375 43.0884V25.1509H3.74292V14.1717H7.76375V3.65088H20.9929V14.1717H29.6596V25.1509H20.9929V43.0884C20.9929 45.104 22.3315 46.1092 25.0138 46.1092Z" fill="black"/>
<path d="M52.0008 0.0883789V20.505C54.7351 15.9634 59.0893 13.6925 65.0633 13.6925C70.0216 13.6925 74.032 15.3488 77.1049 18.6509C80.1726 21.9582 81.7091 26.4425 81.7091 32.1092V57.3176H68.5633V33.88C68.5633 31.104 67.8237 28.9582 66.3549 27.4425C64.881 25.9165 62.8549 25.1509 60.2716 25.1509C57.6987 25.1509 55.6779 25.9165 54.2091 27.4425C52.7351 28.9582 52.0008 31.104 52.0008 33.88V57.3176H38.7716V0.0883789H52.0008Z" fill="black"/>
<path d="M111.235 57.8593C104.943 57.8593 99.7815 55.8385 95.7555 51.7968C91.7398 47.7447 89.7346 42.3697 89.7346 35.6718C89.7346 28.9635 91.7346 23.6249 95.7346 19.651C99.7346 15.6822 104.901 13.6926 111.235 13.6926C117.578 13.6926 122.839 15.6614 127.005 19.5885C131.183 23.5051 133.276 28.9426 133.276 35.901C133.276 37.3905 133.172 38.776 132.964 40.0676H103.276C103.526 41.9843 104.37 43.5468 105.818 44.7551C107.261 45.9635 108.823 46.5676 110.505 46.5676C112.183 46.5676 113.433 46.401 114.255 46.0676C115.073 45.7343 115.677 45.401 116.068 45.0676C116.453 44.7343 116.964 44.1822 117.589 43.401H131.88C130.641 47.7343 128.172 51.2291 124.464 53.8801C120.755 56.5364 116.344 57.8593 111.235 57.8593ZM119.505 31.7968C119.297 29.7864 118.422 28.1458 116.88 26.8801C115.339 25.6197 113.505 24.9843 111.38 24.9843C109.266 24.9843 107.49 25.6197 106.047 26.8801C104.615 28.1458 103.719 29.7864 103.36 31.7968H119.505Z" fill="black"/>
<path d="M41.335 181.675L36.6892 168.8H10.9392L6.21004 181.675H0.626709L20.9392 126.466H26.6892L46.9392 181.675H41.335ZM12.5434 164.32H35.0225L23.8142 133.425L12.5434 164.32Z" fill="black"/>
<path d="M62.8584 176.237C58.9677 172.07 57.025 166.607 57.025 159.841C57.025 153.065 58.9677 147.602 62.8584 143.445C66.7438 139.279 71.8167 137.195 78.0667 137.195C88.3011 137.195 94.8011 141.779 97.5667 150.945H91.5667C90.6604 148.018 89.0511 145.737 86.7334 144.112C84.4104 142.487 81.525 141.675 78.0667 141.675C73.525 141.675 69.8375 143.237 67.0042 146.362C64.1813 149.477 62.775 153.956 62.775 159.8C62.775 165.633 64.1813 170.128 67.0042 173.279C69.8375 176.419 73.525 177.987 78.0667 177.987C81.525 177.987 84.4104 177.175 86.7334 175.55C89.0511 173.925 90.6604 171.649 91.5667 168.716H97.5667C96.1917 172.873 93.8688 176.206 90.6084 178.716C87.3584 181.216 83.1761 182.466 78.0667 182.466C71.8167 182.466 66.7438 180.393 62.8584 176.237Z" fill="black"/>
<path d="M141.04 172.758C144.217 169.482 145.811 165.175 145.811 159.841C145.811 154.508 144.217 150.206 141.04 146.925C137.873 143.633 134.045 141.987 129.561 141.987C125.087 141.987 121.274 143.565 118.123 146.716C114.983 149.857 113.415 154.107 113.415 159.466C113.415 164.831 114.998 169.206 118.165 172.591C121.342 175.982 125.155 177.675 129.603 177.675C134.061 177.675 137.873 176.039 141.04 172.758ZM128.769 182.466C122.696 182.466 117.665 180.31 113.665 175.987C109.665 171.669 107.665 166.164 107.665 159.466C107.665 152.774 109.649 147.393 113.623 143.32C117.592 139.237 122.644 137.195 128.769 137.195C132.728 137.195 136.196 138.154 139.186 140.07C142.17 141.987 144.379 144.466 145.811 147.508V137.987H151.415V181.675H145.811V172.07C144.379 175.112 142.17 177.607 139.186 179.55C136.196 181.498 132.728 182.466 128.769 182.466Z" fill="black"/>
<path d="M196.64 172.758C199.817 169.482 201.411 165.175 201.411 159.841C201.411 154.508 199.817 150.206 196.64 146.925C193.473 143.633 189.645 141.987 185.161 141.987C180.687 141.987 176.874 143.565 173.723 146.716C170.583 149.857 169.015 154.107 169.015 159.466C169.015 164.831 170.598 169.206 173.765 172.591C176.942 175.982 180.754 177.675 185.202 177.675C189.661 177.675 193.473 176.039 196.64 172.758ZM184.369 182.466C178.296 182.466 173.265 180.31 169.265 175.987C165.265 171.669 163.265 166.164 163.265 159.466C163.265 152.774 165.249 147.393 169.223 143.32C173.192 139.237 178.244 137.195 184.369 137.195C188.327 137.195 191.796 138.154 194.786 140.07C197.77 141.987 199.978 144.466 201.411 147.508V122.466H207.015V181.675H201.411V172.07C199.978 175.112 197.77 177.607 194.786 179.55C191.796 181.498 188.327 182.466 184.369 182.466Z" fill="black"/>
<path d="M239.907 182.466C233.657 182.466 228.584 180.393 224.698 176.237C220.808 172.07 218.865 166.591 218.865 159.8C218.865 152.998 220.849 147.529 224.823 143.404C228.792 139.268 233.938 137.195 240.261 137.195C246.578 137.195 251.599 139.149 255.323 143.05C259.058 146.94 260.927 151.758 260.927 157.508C260.927 159.065 260.823 160.508 260.615 161.841H224.615C224.823 166.857 226.334 170.8 229.157 173.675C231.99 176.55 235.573 177.987 239.907 177.987C243.25 177.987 246.115 177.216 248.49 175.675C250.865 174.133 252.5 172.107 253.407 169.591H259.407C257.974 173.331 255.625 176.414 252.365 178.841C249.115 181.258 244.959 182.466 239.907 182.466ZM255.177 157.425C255.177 152.633 253.719 148.815 250.802 145.966C247.896 143.107 244.302 141.675 240.011 141.675C235.719 141.675 232.141 143.081 229.282 145.883C226.433 148.675 224.875 152.524 224.615 157.425H255.177Z" fill="black"/>
<path d="M278.301 137.987V145.112C281.228 139.836 286.056 137.195 292.78 137.195C296.238 137.195 299.342 138.024 302.092 139.675C304.842 141.331 306.884 143.753 308.217 146.945C309.702 143.862 311.848 141.466 314.655 139.758C317.457 138.05 320.676 137.195 324.301 137.195C329.144 137.195 333.197 138.789 336.447 141.966C339.707 145.133 341.342 149.706 341.342 155.675V181.675H335.822V156.716C335.822 151.914 334.66 148.258 332.342 145.758C330.019 143.248 326.848 141.987 322.822 141.987C318.79 141.987 315.618 143.248 313.301 145.758C310.978 148.258 309.822 151.914 309.822 156.716V181.675H304.301V156.716C304.301 151.914 303.139 148.258 300.822 145.758C298.499 143.248 295.327 141.987 291.301 141.987C287.269 141.987 284.098 143.248 281.78 145.758C279.457 148.258 278.301 151.914 278.301 156.716V181.675H272.697V137.987H278.301Z" fill="black"/>
<path d="M368.056 181.029L350.701 137.987H356.701L371.097 175.112L385.493 137.987H391.181L365.264 201.987H359.576L368.056 181.029Z" fill="black"/>
</g>
<defs>
<clipPath id="clip0_100_4085">
<rect width="396" height="202" fill="white"/>
</clipPath>
</defs>
</svg>