<?xml version="1.0" encoding="UTF-8"?>
<!-- Created with Inkscape (http://www.inkscape.org/) -->
<svg width="242.89mm" height="145.85mm" version="1.1" viewBox="0 0 242.89 145.85" xml:space="preserve" xmlns="http://www.w3.org/2000/svg"><g transform="translate(54.636 -56.648)"><g transform="matrix(.26458 0 0 .26458 -65.352 -3.2323)" fill="#fff"><path d="m489.5 226.5c-161.5 5.133-209.5 120.5-220.5 183 14.333-23.167 59.5-73.999 126-73.999 77.5 0 136.5 86.5 172.5 113.5 43.737 32.803 131.62 76.115 247 41 92-28 134.67-125.67 144-172-44.5 60.5-112 96.839-195.5 54-57.5-29.5-100.5-151-273.5-145.5z"/><path d="m261 501c-161.5 5.133-209.5 120.5-220.5 183 14.333-23.167 59.5-73.999 126-73.999 77.5 0 136.5 86.5 172.5 113.5 43.737 32.803 131.62 76.115 247 41 92-28 134.67-125.67 144-172-44.5 60.5-112 96.839-195.5 54-57.5-29.5-100.5-151-273.5-145.5z"/></g></g></svg>
